<svg xmlns="http://www.w3.org/2000/svg" viewBox="0 0 512 512"><title>female-frog</title><g style="isolation:isolate"><g id="Layer_1" data-name="Layer 1"><path d="M512,256c0,141.38-114.62,256-256,256S0,397.38,0,256,114.62,0,256,0,512,114.61,512,256Z" fill="#e9573f"/><path id="_10" data-name="10" d="M501.59,288.27c-1.14-1.26-2.34-2.45-3.59-3.6s-2.38-2.48-3.65-3.64-2.35-2.47-3.61-3.61-2.36-2.47-3.62-3.62-2.36-2.47-3.62-3.62-2.36-2.47-3.62-3.62-2.35-2.46-3.6-3.6-2.37-2.47-3.63-3.64-2.36-2.46-3.62-3.62-2.36-2.46-3.62-3.61-2.34-2.45-3.6-3.6-2.38-2.5-3.66-3.66c-1.13-1.25-2.33-2.43-3.57-3.58s-2.38-2.5-3.65-3.66-2.35-2.46-3.61-3.61-2.36-2.46-3.62-3.61-2.36-2.46-3.62-3.61-2.35-2.46-3.61-3.61-2.38-2.5-3.65-3.66-2.33-2.44-3.58-3.58-2.36-2.47-3.62-3.62-2.38-2.49-3.65-3.66-2.34-2.44-3.59-3.59-2.36-2.47-3.63-3.62-2.35-2.46-3.6-3.6-2.37-2.49-3.65-3.66-2.35-2.45-3.6-3.59-2.36-2.46-3.61-3.62-2.38-2.48-3.65-3.64-2.34-2.46-3.6-3.6-2.36-2.48-3.63-3.64-2.35-2.46-3.61-3.61-2.35-2.46-3.61-3.61-2.37-2.48-3.64-3.65-2.35-2.45-3.6-3.59a51.15,51.15,0,0,0-3.62-3.62c-1.15-1.27-2.37-2.48-3.63-3.63a55.62,55.62,0,0,0-96.23,29.73c-.24,1.65-.36,3.29-.44,4.92,0,.53,0,1-.06,1.58,0,.31,0,.63,0,.94h-.06c-4.12-.53-8.34-.85-12.59-1h0q-1.72-1.89-3.6-3.6c-1.16-1.28-2.37-2.5-3.65-3.65s-2.35-2.47-3.61-3.61-2.36-2.47-3.62-3.61-2.36-2.48-3.62-3.62-2.35-2.47-3.6-3.61-2.37-2.5-3.65-3.64-2.34-2.47-3.59-3.6-2.37-2.48-3.63-3.64-2.36-2.47-3.62-3.61a55.62,55.62,0,1,0-78.49,78.67c1.16,1.26,2.35,2.47,3.62,3.61.06.07.13.13.2.2-11.08,14.55-17.43,31.59-17.32,49.8.13,23,10.54,44.08,27.77,60.48q1.79,1.89,3.68,3.68,1.72,1.82,3.55,3.55c1.19,1.25,2.41,2.47,3.67,3.67s2.37,2.42,3.61,3.61,2.38,2.43,3.62,3.62,2.38,2.43,3.62,3.62,2.35,2.4,3.57,3.56,2.41,2.48,3.67,3.67,2.35,2.43,3.59,3.59,2.39,2.46,3.65,3.66,2.35,2.41,3.58,3.58,2.39,2.45,3.64,3.64,2.38,2.45,3.63,3.64,2.35,2.4,3.57,3.56,2.41,2.47,3.66,3.66,2.38,2.44,3.63,3.64,2.36,2.41,3.59,3.59,2.41,2.47,3.67,3.67,2.34,2.38,3.55,3.55,2.41,2.48,3.68,3.69,2.37,2.43,3.6,3.59,2.36,2.43,3.6,3.6,2.41,2.47,3.67,3.67,2.33,2.39,3.55,3.55,2.41,2.48,3.68,3.69,2.34,2.4,3.56,3.55,2.4,2.47,3.65,3.66,2.38,2.44,3.63,3.64,2.35,2.4,3.57,3.56,2.4,2.46,3.64,3.65,2.38,2.44,3.63,3.63,2.4,2.46,3.65,3.65,2.35,2.41,3.58,3.58,2.37,2.44,3.62,3.61,2.39,2.46,3.64,3.65,2.35,2.4,3.58,3.58,2.41,2.47,3.67,3.67,2.36,2.42,3.6,3.6,2.36,2.42,3.6,3.6,2.41,2.47,3.68,3.67,2.34,2.41,3.57,3.58,2.38,2.43,3.62,3.62,2.39,2.44,3.63,3.62,2.38,2.44,3.62,3.62l.47.47C417,481.27,493.07,397.48,507.3,294c-.69-.7-1.37-1.42-2.1-2.09C504.06,290.63,502.85,289.41,501.59,288.27Z" fill="#e3e2e1" style="mix-blend-mode:multiply"/><g id="_10-2" data-name="10"><g id="icon"><path d="M383.14,196.68a55.32,55.32,0,1,0-109.57-15.41,57,57,0,0,0-.53,7.44,152.24,152.24,0,0,0-20.47-1.29c-4.62,0-9.15.28-13.62.72a56.13,56.13,0,0,0-.52-6.86,55.32,55.32,0,1,0-87.91,52.26c-11.2,14.64-17.63,31.83-17.53,50.21.31,52.81,54.35,95.29,120.71,94.9s119.88-43.51,119.57-96.34c-.1-16.83-5.68-32.62-15.37-46.31A55.5,55.5,0,0,0,383.14,196.68Z" fill="#48cfad"/><path d="M250.74,201.31c-.16,2.17-1.42,3.84-2.8,3.73s-2.37-1.94-2.21-4.09,1.41-3.82,2.8-3.73S250.9,199.17,250.74,201.31Z" fill="#7f4438"/><path d="M260.13,201.31c.16,2.17,1.42,3.84,2.8,3.73s2.37-1.94,2.2-4.09-1.42-3.82-2.8-3.73S260,199.17,260.13,201.31Z" fill="#7f4438"/><path d="M255,239.39,239.7,226.24a1.85,1.85,0,0,1-.2-2.63h0a1.88,1.88,0,0,1,2.63-.21h0l14.09,12.08,13.55-12a1.87,1.87,0,0,1,2.64.14h0a1.88,1.88,0,0,1-.16,2.65h0l-14.77,13.13a1.86,1.86,0,0,1-1.24.48h0a1.89,1.89,0,0,1-1.22-.45Z" fill="#7f4438"/><path d="M161.1,168.44l-10.91-9.68a1.87,1.87,0,0,1-.17-2.63h0a1.88,1.88,0,0,1,2.64-.15h0l10.91,9.67a1.87,1.87,0,0,1,.15,2.65h0a1.85,1.85,0,0,1-1.39.62h0a1.85,1.85,0,0,1-1.24-.47Z" fill="#7f4438"/><path d="M171.18,161.24,165,148.06a1.87,1.87,0,0,1,.88-2.48h0a1.87,1.87,0,0,1,2.49.9h0l6.23,13.17a1.87,1.87,0,0,1-.89,2.49h0a1.91,1.91,0,0,1-.8.18h0a1.86,1.86,0,0,1-1.69-1.07Z" fill="#7f4438"/><path d="M182.63,160.8a1.86,1.86,0,0,1-1.66-2.06h0l1.55-14.47a1.88,1.88,0,0,1,2.05-1.66h0a1.89,1.89,0,0,1,1.67,2.07h0l-1.56,14.46a1.88,1.88,0,0,1-1.85,1.67h-.2Z" fill="#7f4438"/><path d="M347.06,168.28a1.88,1.88,0,0,1,.15-2.65h0L358.12,156a1.88,1.88,0,0,1,2.64.15h0a1.86,1.86,0,0,1-.16,2.63h0l-10.91,9.68a1.84,1.84,0,0,1-1.24.47h0a1.87,1.87,0,0,1-1.4-.62Z" fill="#7f4438"/><path d="M337.12,162.13a1.87,1.87,0,0,1-.9-2.49h0l6.24-13.17a1.86,1.86,0,0,1,2.49-.9h0a1.87,1.87,0,0,1,.89,2.5h0l-6.24,13.17a1.86,1.86,0,0,1-1.69,1.07h0a1.71,1.71,0,0,1-.79-.18Z" fill="#7f4438"/><path d="M326.11,159.14l-1.55-14.46a1.87,1.87,0,0,1,1.65-2.06h0a1.86,1.86,0,0,1,2.06,1.66h0l1.55,14.46a1.86,1.86,0,0,1-1.65,2.06H328a1.88,1.88,0,0,1-1.86-1.67Z" fill="#7f4438"/><path d="M327,171.07a17.66,17.66,0,0,0-8,1.89,8.81,8.81,0,0,1,.88,5.92,9.88,9.88,0,0,1-10.68,7.88,15.71,15.71,0,0,0-.23,2.11,17.91,17.91,0,1,0,18-17.8Z" fill="#7f4438"/><path d="M327.13,154.94A34,34,0,1,0,361,189.19,34,34,0,0,0,327.13,154.94Zm-.31,52a17.9,17.9,0,0,1-17.81-18,15.71,15.71,0,0,1,.23-2.11,9.88,9.88,0,0,0,10.68-7.88,8.81,8.81,0,0,0-.88-5.92,17.66,17.66,0,0,1,8-1.89,17.91,17.91,0,1,1-.21,35.82Z" fill="#f4f0df"/><path d="M184.46,171.07a17.7,17.7,0,0,0-8,1.89,8.77,8.77,0,0,1,.88,5.92,9.87,9.87,0,0,1-10.68,7.88,15.6,15.6,0,0,0-.23,2.11,17.91,17.91,0,1,0,18-17.8Z" fill="#7f4438"/><path d="M184.56,154.94a34,34,0,1,0,33.84,34.25A34,34,0,0,0,184.56,154.94Zm-.31,52a17.91,17.91,0,0,1-17.81-18,15.6,15.6,0,0,1,.23-2.11,9.87,9.87,0,0,0,10.68-7.88,8.77,8.77,0,0,0-.88-5.92,17.7,17.7,0,0,1,8-1.89,17.91,17.91,0,1,1-.21,35.82Z" fill="#f4f0df"/></g><path id="shadow" d="M373.27,282.31c-.1-16.83-5.68-32.62-15.37-46.31a55.51,55.51,0,1,0-84.33-54.73,57,57,0,0,0-.53,7.44,149.85,149.85,0,0,0-17-1.25V378.59C321.27,377.23,373.57,334.52,373.27,282.31Z" fill="#eeece7" style="mix-blend-mode:multiply"/></g></g></g></svg>