<svg id="Layer_1" data-name="Layer 1" xmlns="http://www.w3.org/2000/svg" viewBox="0 0 512 512"><title>chick-eggshell</title><g id="chick-eggshell"><g id="label"><path d="M512,256c0,141.39-114.61,256-256,256S0,397.39,0,256,114.63,0,256,0,512,114.61,512,256Z" fill="#ff8bc7"/></g><g id="fill"><path d="M369.1,232.8C358.61,167.08,310.66,96.71,256,96.71S153.38,167.08,142.89,232.8c-7.14,44.77,3.11,87.27,28.16,116.65C192,374,222.2,387.58,256,387.58s64-13.54,84.94-38.14C366,320.06,376.25,277.56,369.1,232.8Z" fill="#ffce54"/><path d="M258.14,193.71s-17.59,14.57-26.23,14.09c7.6,7.48,16.77,18.45,26.23,25.07,6.95-5.69,17.79-16.75,25-25.16C273.84,208.07,258.14,193.71,258.14,193.71Z" fill="#fc6e51"/><path d="M321.81,276.65c-6.08-11.16-8.22-22.3-23.43-42.54-15.17,12.46-33.27,33.4-38.76,49.59C248.16,265.5,224,242.21,213.12,238c-12,10-17.49,34.42-27,44.71-15.19-15.17-37.1-34.36-47.61-40.48a155.66,155.66,0,0,0-4,35.25c0,76.12,54.39,137.83,121.47,137.83s121.48-61.71,121.48-137.83a153.93,153.93,0,0,0-8.6-51.08C351.59,244.86,330.59,272.51,321.81,276.65Z" fill="#fff"/></g><g id="line"><path d="M141.46,249.54l-.53,0a5.47,5.47,0,0,1-4.93-6c.36-3.84.86-7.72,1.48-11.61C148.33,164,198.53,91.24,256,91.24S363.66,164,374.51,231.93a5.47,5.47,0,1,1-10.81,1.72C351.14,155,297.87,102.19,256,102.19S160.85,155,148.3,233.66q-.87,5.49-1.4,10.93A5.47,5.47,0,0,1,141.46,249.54Z" fill="#3d3d3d"/><path d="M258.14,237.73a4.87,4.87,0,0,1-2.79-.88c-7.18-5-14.09-12.29-20.17-18.7-2.33-2.45-4.57-4.81-6.68-6.89a4.86,4.86,0,0,1-1-5.44,4.75,4.75,0,0,1,4.72-2.89c4.85.39,16.36-7.59,22.86-13a4.86,4.86,0,0,1,6.39.15c5.92,5.4,16.31,13.14,21.5,12.73a5.07,5.07,0,0,1,4.57,2.74,4.87,4.87,0,0,1-.68,5.28c-7.8,9.12-18.8,20.19-25.6,25.76A4.87,4.87,0,0,1,258.14,237.73ZM241.23,210.4l1,1.05c4.88,5.13,10.3,10.83,15.71,15.18,4.72-4.21,10.8-10.27,16.2-16.14-6.22-2.68-12.39-7.34-16.14-10.46C254,203.07,247.52,207.66,241.23,210.4Z" fill="#3d3d3d"/><path d="M256,420.76C186,420.76,129,356.48,129,277.46A161.56,161.56,0,0,1,133.21,241a5.48,5.48,0,0,1,8.09-3.49c10,5.81,29.3,22.45,44.21,36.9a139.77,139.77,0,0,0,6.85-13.53c4.73-10.17,9.63-20.7,17.27-27.07a5.48,5.48,0,0,1,5.49-.9c10.7,4.16,30.54,22.62,43.46,39.72,8.32-15.63,23.69-32.32,36.34-42.71a5.54,5.54,0,0,1,4.13-1.21,5.48,5.48,0,0,1,3.73,2.14,148.78,148.78,0,0,1,19.16,33.25c.65,1.48,1.28,2.92,1.93,4.34,5.79-5.27,14.54-15.48,22.49-24.74,6.17-7.2,12.55-14.63,18.54-21a5.47,5.47,0,0,1,9.16,1.92,159,159,0,0,1,8.92,52.9C382.95,356.48,326,420.76,256,420.76ZM142.27,251.3A151.18,151.18,0,0,0,140,277.46c0,73,52,132.35,116,132.35s116-59.37,116-132.35a149.09,149.09,0,0,0-5.48-40.35c-3.92,4.42-7.94,9.11-11.87,13.69-14.67,17.1-24,27.74-30.5,30.81a5.47,5.47,0,0,1-7.14-2.33c-2-3.58-3.49-7.09-5.12-10.8a136.59,136.59,0,0,0-14.44-26.33c-13.45,12.07-28,29.65-32.63,43.32a5.48,5.48,0,0,1-9.82,1.16c-10.11-16-30.21-35.72-40.84-42-4.57,5.16-8.28,13.12-11.87,20.85-3.77,8.1-7.32,15.74-12.1,20.94a5.46,5.46,0,0,1-3.92,1.76,5,5,0,0,1-4-1.6C170.41,274.69,153.54,259.6,142.27,251.3Z" fill="#3d3d3d"/><path d="M232.64,182.52a5.49,5.49,0,0,1-5-3.15c-1.74-3.73-4.46-5.61-8.09-5.61h0c-4,0-8.34,2.46-9.79,5.58a5.47,5.47,0,1,1-9.93-4.6c3.24-7,11.34-11.92,19.69-11.94h.05c7.9,0,14.47,4.34,18,11.92a5.48,5.48,0,0,1-5,7.8Z" fill="#3d3d3d"/><path d="M307.19,182.52a5.49,5.49,0,0,1-5-3.13c-2.17-4.57-5.67-5.57-8.23-5.59-4,0-8.28,2.35-10,5.69a5.47,5.47,0,1,1-9.79-4.9c3.52-7,11.4-11.75,19.64-11.75h.23c7.92.08,14.49,4.4,18,11.85a5.48,5.48,0,0,1-4.94,7.82Z" fill="#3d3d3d"/></g></g></svg>