<svg id="Layer_1" data-name="Layer 1" xmlns="http://www.w3.org/2000/svg" viewBox="0 0 512 512"><title>cat-flat</title><rect y="9.14" width="512" height="493.73" rx="54.99" ry="54.99" transform="translate(512) rotate(90)" fill="#e6d6a6"/><rect x="20.23" y="11.1" width="471.53" height="489.81" rx="43.89" ry="43.89" fill="#906d88"/><path d="M441.8,287.09q0,44.87-30.48,75t-75.69,28.77h-6.16q-7.88-.33-22.94,3.6t-22.95,3.94a38.63,38.63,0,0,1-19.52-5.31q-9.24-5.31-13.7-5.31a42.91,42.91,0,0,0-7.53,1,43.76,43.76,0,0,1-7.88,1q-7.88,0-10.28-29.79-3.08,16.11-7.19,20.55-5.14,6.5-20.55,6.51-11.65,0-11.64-5.82,0-5.14,6.16-8.9,4.11-2.39,7.88-4.45,1.36-1.71,3.08-16.44,1.36-13.36,1.37-18.16,0-12.66-3.77-17.81L179.8,293.94q-12-13.7-12-26a26,26,0,0,1,1-6,26,26,0,0,0,1-6q0-9.92-11.3-24.49T147.27,208q0-6.5,4.79-17.47-6.51-24-6.51-30.48h.68L162,171q9.25,5.48,17.81,5.48a27,27,0,0,0,16.1-5.14q3.76-2.74,12.33-12.33,7.53,14.73,7.54,22.26,0,.69,3.94,8.39a41.54,41.54,0,0,1,4.62,14.9q2.39,1,7.19,2.74,7.19,2.4,13,18.5,2.06,6.16,24.31,8.56,26.37,2.74,34.93,7.19,17.8,9.93,31.17,42.46,11.64,29.46,11.64,52.75a57.13,57.13,0,0,1-2.4,15.58q-2.4,8.4-5.14,16.27l1.71.35q33.56,0,56.34-24.15t22.77-57.71q0-23.28-11-42.12-13-22.61-34.25-22.61a33.81,33.81,0,0,0-9.42,1.88,33.42,33.42,0,0,1-9.08,1.88q-10.62,0-10.62-11,0-14.38,29.11-14.38,30.82,0,50,28.77Q441.8,254.56,441.8,287.09ZM165.42,208.32q-3.43-4.79-5.48-5.14-.69,2.75-1.71,5.82-2.06-1-1-6.85h-1l-4.45,2.06q.68,7.54,7.54,7.54Q162.67,211.74,165.42,208.32Zm9.93,18.15V225.1a7.52,7.52,0,0,0-2.4-1.37h-1.37q1,1,3.08,2.74Zm15.41-20.55-.34-1.37a9.13,9.13,0,0,0-6.16-2.06,68.11,68.11,0,0,0,.34,6.85l-.34.34a18.92,18.92,0,0,1-3.08-6.85q-4.11.34-5.48,6.51a13.44,13.44,0,0,0,7.19,2.4Q190.76,211.74,190.76,205.92Z" fill="#e6d6a6"/></svg>