<svg id="Layer_1" data-name="Layer 1" xmlns="http://www.w3.org/2000/svg" viewBox="0 0 512 512"><defs><style>.cls-1{fill:#ffb85a;}.cls-2{opacity:0.08;}.cls-3{fill:#757889;}.cls-4{opacity:0.2;}.cls-5{fill:#fff;}.cls-6{fill:#606472;}</style></defs><title>cross-flat</title><polygon class="cls-1" points="295.38 91.9 295.38 0 216.62 0 216.62 91.9 131.28 91.9 131.28 170.67 216.62 170.67 216.62 380.72 295.38 380.72 295.38 170.67 380.72 170.67 380.72 91.9 295.38 91.9"/><g class="cls-2"><polygon points="295.38 0 256 0 256 380.72 295.38 380.72 295.38 170.67 380.72 170.67 380.72 91.9 295.38 91.9 295.38 0"/></g><path class="cls-3" d="M437.56,506.22a13.28,13.28,0,0,1-10.9,5.78H85.33a13.12,13.12,0,0,1-12.21-18l26.26-65.64a13.19,13.19,0,0,1,12.21-8.27H400.41a13.19,13.19,0,0,1,12.21,8.27L438.88,494A13.25,13.25,0,0,1,437.56,506.22Z"/><g class="cls-4"><path class="cls-5" d="M139.09,420.1,102.33,512h-17a13.12,13.12,0,0,1-12.21-18l26.26-65.64a13.19,13.19,0,0,1,12.21-8.27Z"/></g><g class="cls-2"><path d="M437.56,506.22a13.28,13.28,0,0,1-10.9,5.78H409.4l-36.76-91.9h27.77a13.19,13.19,0,0,1,12.21,8.27L438.88,494A13.25,13.25,0,0,1,437.56,506.22Z"/></g><path class="cls-6" d="M374.15,393.85V420.1H137.85V393.85A13.17,13.17,0,0,1,151,380.72H361A13.17,13.17,0,0,1,374.15,393.85Z"/><g class="cls-4"><path class="cls-5" d="M170.67,380.72V420.1H137.85V393.85A13.17,13.17,0,0,1,151,380.72Z"/></g><g class="cls-2"><path d="M374.15,393.85V420.1H341.33V380.72H361A13.17,13.17,0,0,1,374.15,393.85Z"/></g></svg>