<svg id="Layer_1" data-name="Layer 1" xmlns="http://www.w3.org/2000/svg" viewBox="0 0 512 512"><defs><style>.cls-1{fill:#d9e4e8;}.cls-2{fill:#79d3d3;}.cls-3{fill:#141f38;}.cls-4{opacity:0.14;}.cls-5{fill:#17292d;}</style></defs><title>earth_style_3</title><path class="cls-1" d="M256,460.8C143.08,460.8,51.2,368.92,51.2,256S143.08,51.2,256,51.2,460.8,143.08,460.8,256,368.92,460.8,256,460.8Z"/><path class="cls-2" d="M268.34,132.43c0,.12-.07.21-.1.3a12.81,12.81,0,0,1-1.49,2.47c-.76,1.07-1.52,2.1-2.28,3.14-7.41,10.27-15.05,20.5-24.18,29.55-4,3.95-8.29,8.06-13.7,10.32a9.44,9.44,0,0,1-5.65.83,9.7,9.7,0,0,1-4.28-2.63c-1-.9-2-1.78-2.86-2.75a66.06,66.06,0,0,1-5.3-6.48,133.73,133.73,0,0,1-9.14-14.71q-3.07-5.62-5.75-11.42c-.13-.27-.24-.56-.38-.83a1.53,1.53,0,0,1-.2-.4,10.06,10.06,0,0,1-.46-1.07c-.07-.06-.07-.12-.1-.18a8.44,8.44,0,0,1-.46-2.77,9.35,9.35,0,0,1,6.85-8.77l1.65-.4c10.75-2.62,27-4.9,41.58-9.38,4.6-1.4,9.59-2.5,14.46-1.89a13.19,13.19,0,0,1,9.36,5.15C268.08,123.63,269.6,128.87,268.34,132.43Z"/><path class="cls-3" d="M222.37,192a18.91,18.91,0,0,1-4.29-.48A21.84,21.84,0,0,1,208,185.79l-.48-.44c-1-.93-2-1.87-3-2.87a78.62,78.62,0,0,1-6.35-7.74,144.09,144.09,0,0,1-10-16.12c-2.14-3.92-4.21-8-6.12-12.14l-.41-.37-1.2-3.24a21,21,0,0,1-1.19-7,22.08,22.08,0,0,1,15.86-21l2.46-.62c4-1,8.75-1.92,13.91-2.93,8.52-1.67,18.18-3.58,26.91-6.24,5.24-1.61,12.22-3.31,19.8-2.35A25.78,25.78,0,0,1,276.28,113c4.06,5.79,6.84,14.94,4.38,22.93l-.52,1.53a25,25,0,0,1-2.93,5.11l-2.41,3.32c-7.41,10.27-15.55,21.21-25.48,31.06-5,4.91-10.4,10-17.79,13A23.6,23.6,0,0,1,222.37,192Zm-15.86-53.61q1.93,4,4.09,7.95a121.15,121.15,0,0,0,8.26,13.32,54.09,54.09,0,0,0,4.27,5.23c.15.16.31.32.47.47a45.35,45.35,0,0,0,7.69-6.56c8.56-8.48,16-18.46,22.81-28l1.66-2.28a4.17,4.17,0,0,0-.21-.47c0,.08-.24,0-.54,0-2.87-.35-6.62.64-9.21,1.42a293.36,293.36,0,0,1-29.44,6.88C212.83,137.08,209.51,137.73,206.51,138.39ZM256,129.54Z"/><path class="cls-2" d="M149.17,430.73A204.72,204.72,0,0,1,86.31,141.4a57.51,57.51,0,0,1,8.21-.6,59.06,59.06,0,0,1,36.36,105.62l-.63.44-1.72,1.32c-.27.2-.69.56-1.11.93-.74.64-1.31,1.14-1.89,1.67q-1.76,1.62-3.38,3.36c-1.11,1.2-2.15,2.4-3.14,3.64s-1.91,2.5-2.8,3.82-1.74,2.68-2.53,4.07-1.56,2.89-2.24,4.38-1.29,2.9-1.86,4.44-1.07,3.06-1.51,4.64-.83,3.2-1.14,4.82-.57,3.28-.76,5-.3,3.34-.34,5l0,1.72A60.91,60.91,0,0,0,128.28,343a73.24,73.24,0,0,1,20.9,87.77Z"/><path class="cls-3" d="M47.91,192.27c-.15.47-.29,1-.42,1.43.25-.86.52-1.72.78-2.57-.1.3-.2.61-.29.91A2,2,0,0,0,47.91,192.27ZM46.8,196l.69-2.33c-.15.46-.29.93-.42,1.39S46.88,195.72,46.8,196Zm-.81,2.9a.14.14,0,0,0,0-.06c.21-.79.43-1.57.65-2.35-.15.51-.29,1-.44,1.54C46.14,198.35,46.06,198.64,46,198.93Zm-.7,2.65,0-.11c.22-.85.44-1.7.67-2.54L45.42,201C45.37,201.22,45.33,201.4,45.29,201.58ZM44,206.72q.6-2.58,1.26-5.14c-.3,1.15-.59,2.3-.87,3.46Z"/><path class="cls-3" d="M44.42,205c-.13.54-.25,1.08-.38,1.62v.06Z"/><path class="cls-3" d="M137.33,438.38c.29.2.58.38.87.56l1.73,1.1C139.06,439.49,138.19,438.94,137.33,438.38Zm-1.31-.86,1.06.69-2-1.33Zm-6.44-4.43,2.13,1.5c-.85-.59-1.69-1.19-2.52-1.79Zm-2.11-1.53,1,.71.75.53c-.88-.63-1.75-1.26-2.61-1.9ZM125.38,430l1.2.89c-.84-.62-1.67-1.25-2.5-1.88Zm-32-29.42q1.5,1.7,3,3.35l-1.22-1.35C94.64,401.92,94,401.26,93.43,400.59Zm367.7-71.83c.15-.46.31-.91.47-1.37.11-.3.21-.59.31-.88.24-.7.48-1.4.71-2.1C462.14,325.87,461.64,327.32,461.13,328.76Z"/><path class="cls-2" d="M326.34,374.46a45.07,45.07,0,0,1-45.06-45c0-56.23,5.61-84,6.73-89l.27-1.18a10.67,10.67,0,0,1,10.09-7.58,17.65,17.65,0,0,1,2.74.28l23.4,4.55c3.36.64,6.71,1.29,10.06,2,2.07.41,4.14.81,6.21,1.2,4,.74,7.9,1.49,11.81,2.4l2.76.68A58.8,58.8,0,0,0,370,245a33.73,33.73,0,0,0,3.71-.2,36.13,36.13,0,0,0-4-72h-43.2A10.57,10.57,0,0,1,316,162.24a10.34,10.34,0,0,1,2.31-6.39l.32-.39a11.71,11.71,0,0,1,1.11-1.11l.65-.61L380.6,93.49a205.09,205.09,0,0,1,74.27,211.62,53.74,53.74,0,0,0-84,31.07c-.07.28-.16.58-.23.88-.21.92-.38,1.79-.51,2.64A45.23,45.23,0,0,1,326.34,374.46Z"/><path class="cls-3" d="M447.84,248.12c-.11-2.62-.26-5.22-.48-7.8Q447.68,244.2,447.84,248.12Zm-.48-7.8a190.32,190.32,0,0,0-23.83-78A191.86,191.86,0,0,1,447.36,240.32Z"/><g class="cls-4"><path class="cls-5" d="M383.94,112.88A210.66,210.66,0,0,1,396.8,185.6c0,116.64-94.56,211.2-211.2,211.2a210.69,210.69,0,0,1-72.72-12.86A191.5,191.5,0,0,0,256,448c106,0,192-86,192-192A191.49,191.49,0,0,0,383.94,112.88Z"/></g><path class="cls-2" d="M467.2,76.8a32,32,0,1,1,32-32A32,32,0,0,1,467.2,76.8Z"/><path class="cls-3" d="M467.2,25.6A19.2,19.2,0,1,1,448,44.8a19.22,19.22,0,0,1,19.2-19.2m0-25.6A44.8,44.8,0,1,0,512,44.8,44.81,44.81,0,0,0,467.2,0Z"/><circle class="cls-3" cx="390.4" cy="19.2" r="19.2"/><path class="cls-2" d="M38.4,499.2A25.6,25.6,0,1,1,64,473.6,25.62,25.62,0,0,1,38.4,499.2Z"/><path class="cls-3" d="M38.4,460.8a12.8,12.8,0,1,1-12.8,12.8,12.81,12.81,0,0,1,12.8-12.8m0-25.6a38.4,38.4,0,1,0,38.4,38.4,38.4,38.4,0,0,0-38.4-38.4Z"/><path class="cls-3" d="M465.13,195.7q.92,3.18,1.74,6.42Q466.06,198.88,465.13,195.7Zm-1.78,126.47c.7-2.18,1.37-4.38,2-6.6C464.71,317.79,464,320,463.35,322.17Zm-391-10.1a191.61,191.61,0,0,0,69.8,98.53s0,0,0-.07A192.75,192.75,0,0,1,72.35,312.07ZM138.2,438.94l1.73,1.1c-.87-.55-1.74-1.1-2.6-1.66C137.62,438.58,137.91,438.76,138.2,438.94ZM136,437.52l1.06.69-2-1.33Zm-6.44-4.43,2.13,1.5c-.85-.59-1.69-1.19-2.52-1.79Zm-2.11-1.53,1,.71.75.53c-.88-.63-1.75-1.26-2.61-1.9ZM125.38,430l1.2.89c-.84-.62-1.67-1.25-2.5-1.88Zm-32-29.42q1.5,1.7,3,3.35l-1.22-1.35C94.64,401.92,94,401.26,93.43,400.59Zm.18-247A190.12,190.12,0,0,0,66,228.26a190.72,190.72,0,0,1,27.65-74.65ZM87.68,393.87q-2.82-3.44-5.51-7Q84.84,390.42,87.68,393.87Zm-7.95-10.31c-.74-1-1.46-2-2.17-3C78.25,381.53,79,382.55,79.73,383.56Zm-6.64-9.67c.35.55.71,1.09,1.07,1.63l-1.08-1.66A0,0,0,0,0,73.09,373.89Zm-8.16-13.71q-3.49-6.41-6.58-13.06Q61.41,353.78,64.93,360.18Zm-8.09-16.4c-1-2.24-1.94-4.49-2.85-6.77C54.9,339.29,55.85,341.54,56.84,343.78ZM459.95,180q1.73,4.62,3.25,9.35Q461.68,184.63,459.95,180Zm-5-12.16c1,2.24,2,4.51,2.88,6.79C457,172.35,456,170.08,455,167.84Zm-9.32,118.07h0c.41-2.62.77-5.25,1.06-7.9Q446.28,282,445.67,285.91Zm-30.5-137.19c1.24,1.85,2.46,3.71,3.64,5.6Q417.05,151.48,415.17,148.72Zm-33.69-38,0,0a193.86,193.86,0,0,1,33.73,38A191.85,191.85,0,0,0,381.48,110.72Z"/><path class="cls-3" d="M149.39,445.69l-1.11-.62q2.82,1.62,5.7,3.14Q151.67,447,149.39,445.69Zm-2.28-1.3c.39.24.78.46,1.17.68l-1-.56ZM140,440.1c1.8,1.14,3.61,2.26,5.44,3.33Q142.73,441.81,140,440.1Zm-2.7-1.72c.29.2.58.38.87.56l1.73,1.1.1.06-.66-.42Zm-2.26-1.5c-1.07-.71-2.13-1.44-3.18-2.17,1.37,1,2.74,1.89,4.13,2.81.39.27.78.53,1.18.77l-.12-.08Zm-5.88-4.08c-.88-.63-1.75-1.26-2.61-1.9s-1.54-1.15-2.3-1.73l-1-.74.77.59,1.3,1c.7.53,1.39,1,2.09,1.55l1,.71,1.14.82,2.13,1.5.18.12-.65-.46ZM118.92,425l.11.09c-.6-.49-1.21-1-1.81-1.48C117.78,424,118.35,424.49,118.92,425Zm2.34,1.88,2.05,1.6c-.77-.59-1.52-1.18-2.28-1.78Zm-.23-.18L119,425ZM55.55,171.29q-2.19,5.13-4.09,10.39Q53.36,176.41,55.55,171.29Z"/><path class="cls-3" d="M473.56,252.15c0-.93,0-1.85-.06-2.78s-.06-1.82-.1-2.72c0-.5,0-1-.07-1.51-.05-1.08-.11-2.16-.18-3.23-.14-2.15-.31-4.3-.51-6.43l0-.35c-.1-1.05-.21-2.1-.32-3.15,0,0,0-.06,0-.1-.13-1.11-.26-2.22-.4-3.34l0-.25c-.13-1-.27-2.07-.42-3.11s-.28-1.94-.43-2.91q-.56-3.57-1.22-7.1c-.22-1.09-.43-2.19-.66-3.28s-.46-2.18-.7-3.27-.49-2.18-.75-3.26-.52-2.17-.8-3.24q-.83-3.24-1.74-6.42c-.31-1.07-.62-2.13-.94-3.19l-1-3.16q-1.53-4.72-3.25-9.35c-.38-1-.78-2.06-1.17-3.08-.3-.76-.6-1.53-.91-2.29-.92-2.28-1.88-4.55-2.88-6.79a217.64,217.64,0,0,0-393.9-8.58l-.19.39c-.71,1.44-1.41,2.88-2.09,4.34-.55,1.19-1.1,2.38-1.64,3.58a.08.08,0,0,1,0,0,.27.27,0,0,0,0,.11c-.52,1.18-1,2.37-1.54,3.56q-2.18,5.13-4.09,10.39c-.56,1.53-1.1,3.06-1.62,4.61q-.5,1.46-1,2.91c-.21.64-.42,1.29-.61,1.93a1.86,1.86,0,0,0-.07.22c-.24.78-.48,1.56-.71,2.35l-.66,2.23c-.07.22-.14.45-.19.67-.23.77-.44,1.55-.65,2.33s-.45,1.69-.67,2.54l0,.11c-.44,1.68-.86,3.38-1.25,5.08-.71,3-1.35,6.09-1.92,9.18-.23,1.15-.43,2.31-.63,3.47-.12.69-.23,1.39-.34,2.08s-.25,1.54-.36,2.3c-.2,1.36-.39,2.73-.57,4.09L40,229.46l-.09.7-.21,1.9c-.08.71-.16,1.43-.23,2.15-.13,1.31-.25,2.63-.36,4q-.27,3.42-.45,6.87c0,.85-.08,1.7-.11,2.56,0,1.05-.07,2.09-.1,3.14,0,.82,0,1.64,0,2.46s0,1.87,0,2.81,0,2,0,3c0,.61,0,1.21,0,1.82,0,1,0,2,.08,3,0,1.29.1,2.57.17,3.86s.13,2.29.21,3.43c0,.24,0,.47,0,.7q.26,3.53.62,7l.12,1.15c.09.81.18,1.62.28,2.43,0,.27.07.54.1.82.15,1.17.3,2.34.47,3.51s.32,2.19.49,3.28c.05.33.1.65.16,1,.16,1.08.35,2.15.54,3.22s.43,2.41.66,3.6c0,.11,0,.22.07.32.22,1.16.46,2.32.71,3.47s.53,2.44.81,3.66.63,2.66,1,4c.27,1.09.56,2.18.85,3.26s.57,2.09.86,3.13l.18.64q1.51,5.28,3.29,10.43c.35,1,.71,2,1.08,3.07l.21.59c.4,1.1.81,2.19,1.23,3.28s.88,2.29,1.34,3.43c.91,2.28,1.87,4.53,2.85,6.77.5,1.12,1,2.23,1.51,3.34q3.08,6.66,6.58,13.06c.63,1.15,1.26,2.29,1.91,3.42l.21.36c.54,1,1.09,1.89,1.65,2.83l.13.22.21.35.14.23c.56,1,1.13,1.88,1.71,2.82l.16.25c.66,1.06,1.33,2.12,2,3.17,0,0,0,0,0,0l1.08,1.66,1.1,1.65c.73,1.09,1.47,2.16,2.22,3.23a.19.19,0,0,0,.08.11c.71,1,1.43,2,2.17,3a1.18,1.18,0,0,0,.17.24c.75,1,1.5,2,2.27,3.07q2.69,3.55,5.51,7c.62.76,1.26,1.53,1.9,2.29l1.69,2,.05.06L93,400.09l.11.13c.11.12.22.25.34.37.6.67,1.21,1.33,1.82,2l1.22,1.35.08.08.14.16.32.34c.73.78,1.47,1.55,2.21,2.32l1.14,1.18c.92.94,1.85,1.87,2.78,2.79l1,.93c1,.94,1.94,1.88,2.92,2.8l.11.11.35.33.36.33c.55.51,1.11,1,1.67,1.53l1.67,1.52.36.32,1.81,1.59.19.16,1.4,1.2.18.15.12.11a1.25,1.25,0,0,0,.22.18c.51.45,1,.88,1.56,1.32l.21.17c.56.47,1.13.93,1.7,1.39.77.63,1.55,1.26,2.34,1.88l2.05,1.6.77.59c.83.63,1.66,1.26,2.5,1.88s1.73,1.27,2.61,1.9,1.67,1.2,2.52,1.79c1.11.77,2.23,1.54,3.36,2.29l2,1.33.12.08.13.09c.86.56,1.73,1.11,2.6,1.66q2.75,1.74,5.54,3.39c.54.33,1.09.65,1.64,1l.21.12,2.07,1.18q2.28,1.29,4.59,2.52A216.29,216.29,0,0,0,256,473.6c93.81,0,173.75-59.37,204.31-142.57a1.08,1.08,0,0,1,.07-.19l.75-2.08c.15-.46.31-.91.47-1.37.11-.3.21-.59.31-.88.24-.7.48-1.4.71-2.1s.49-1.49.73-2.24c.69-2.18,1.36-4.38,2-6.6q1.32-4.65,2.44-9.37l.51-2.24c.18-.77.35-1.54.51-2.32q.78-3.65,1.44-7.35.23-1.23.42-2.46c.26-1.57.5-3.14.73-4.72.08-.55.15-1.1.23-1.65s.17-1.32.26-2,.18-1.43.26-2.14c.06-.51.11-1,.17-1.52q.22-2.13.42-4.26a.13.13,0,0,1,0-.06q.2-2.32.36-4.65c.06-.94.12-1.89.17-2.84,0-.67.07-1.33.1-2s.06-1.2.08-1.81,0-1.14.05-1.71,0-1,0-1.56c0-.71,0-1.41,0-2.12,0-.93,0-1.87,0-2.81C473.6,254.71,473.59,253.43,473.56,252.15ZM142.15,410.6a191.61,191.61,0,0,1-69.8-98.53q-.59-1.92-1.14-3.87c-.19-.66-.37-1.32-.55-2-.42-1.53-.81-3.06-1.18-4.59-.14-.56-.28-1.13-.41-1.69-1-4.08-1.78-8.21-2.47-12.36-.14-.79-.26-1.58-.38-2.38s-.24-1.59-.35-2.38-.21-1.52-.3-2.28c-.08-.56-.15-1.11-.21-1.66-.12-.94-.22-1.88-.32-2.83-.18-1.76-.34-3.52-.48-5.3q-.26-3.3-.39-6.62c0-.78-.06-1.57-.08-2.36s0-1.37-.05-2.06c0-.41,0-.82,0-1.23,0-.83,0-1.65,0-2.48s0-1.82,0-2.72c0-.41,0-.81,0-1.22,0-.89,0-1.78.07-2.66,0-1.31.1-2.62.18-3.92,0-.93.1-1.86.17-2.78,0-.24,0-.47.05-.71,0-.58.08-1.16.13-1.74l.12-1.43c.08-.87.16-1.74.25-2.61l.18-1.66.09-.84q.31-2.73.71-5.45a190.12,190.12,0,0,1,27.62-74.65h.92A46.26,46.26,0,0,1,123.45,236c-.33.23-.65.46-1,.71s-.66.51-1,.76l-.64.47c-.69.53-1.34,1.08-1.84,1.53-.72.61-1.43,1.24-2.16,1.9-1.42,1.31-2.8,2.68-4.08,4.06s-2.57,2.86-3.78,4.38-2.35,3.07-3.42,4.66-2.1,3.26-3.05,4.94-1.86,3.44-2.68,5.19-1.59,3.6-2.27,5.43-1.3,3.75-1.84,5.65-1,3.9-1.39,5.82-.69,4-.91,6-.37,4.09-.43,6.11c0,.7,0,1.39,0,2.09A73.74,73.74,0,0,0,120.38,353,60.16,60.16,0,0,1,143,400.19a61.23,61.23,0,0,1-.88,10.34S142.15,410.58,142.15,410.6ZM256,448a190.82,190.82,0,0,1-91-23,86.06,86.06,0,0,0-28.61-92,48.16,48.16,0,0,1-17.79-37.38c0-.45,0-.91,0-1.36,0-1.34.13-2.68.28-4s.34-2.61.6-3.91.55-2.54.9-3.8.75-2.46,1.2-3.67.94-2.38,1.48-3.54,1.11-2.28,1.74-3.39,1.29-2.17,2-3.22,1.45-2.07,2.24-3.06,1.61-1.94,2.46-2.86,1.76-1.81,2.68-2.66c.47-.42.94-.84,1.42-1.25.26-.22.5-.45.78-.66s.58-.41.86-.64.47-.4.72-.58.53-.36.78-.56A71.86,71.86,0,0,0,111.28,130,191.7,191.7,0,0,1,360.8,95.19l-49.49,49.5a23.83,23.83,0,0,0-2.41,2.41s-.74.73-.69.83a23.08,23.08,0,0,0-5,14.31,23.32,23.32,0,0,0,23.36,23.36h43.2a23.33,23.33,0,0,1,2.57,46.52,22.92,22.92,0,0,1-2.34.12c-4.9,0-9.74-1.53-14.46-2.63-6.09-1.42-12.29-2.46-18.41-3.69-5-1-10-2-15.06-2.92l-18.86-3.67a28.74,28.74,0,0,0-4.8-.45A23.43,23.43,0,0,0,275.9,236s-.12.45-.32,1.28c0,.13-.06.25-.06.38-1.54,6.85-7,35.46-7,91.84A57.84,57.84,0,0,0,382.78,342c.07-.64.2-1.28.32-1.85.07-.26.13-.52.2-.71a41,41,0,0,1,56.63-28.26C416.19,390.21,342.72,448,256,448ZM448,259.59a2.8,2.8,0,0,1,0,.29c0,1,0,1.94-.08,2.91,0,.21,0,.41,0,.62l-.09,2.12,0,.45c0,.78-.08,1.55-.13,2.33-.1,1.71-.23,3.41-.39,5.11-.06.73-.13,1.46-.21,2.18s-.16,1.62-.26,2.42c-.29,2.65-.65,5.28-1.06,7.9h0A66.48,66.48,0,0,0,358.5,333c-.08.29-.16.6-.23.9l-.09.33-.07.33c-.15.7-.35,1.64-.53,2.74a32.24,32.24,0,0,1-63.5-7.82c0-50.41,4.52-77,6.08-84.65l17,3.3,5.41,1c3.17.61,6.34,1.21,9.51,1.85,2.13.43,4.26.83,6.4,1.24,3.95.75,7.69,1.45,11.23,2.28.84.19,1.68.41,2.53.62A70.4,70.4,0,0,0,370,257.84a45.76,45.76,0,0,0,5.13-.28A48.93,48.93,0,0,0,369.73,160H332.2l49.24-49.24,0,0a191.85,191.85,0,0,1,33.69,38q1.89,2.76,3.64,5.6,1.11,1.75,2.16,3.54c.44.73.87,1.46,1.3,2.2s.85,1.48,1.26,2.22a190.32,190.32,0,0,1,23.83,78c.22,2.58.37,5.18.48,7.8s.16,5.25.16,7.88C448,257.2,448,258.4,448,259.59Z"/><path class="cls-3" d="M42.79,212.42q.5-2.44,1-4.86Q43.28,210,42.79,212.42Z"/><path class="cls-3" d="M43.84,207.55l.19-.84Z"/><path class="cls-3" d="M41.49,219.31c.33-1.92.69-3.84,1.06-5.74Q42,216.43,41.49,219.31Z"/><path class="cls-3" d="M42.55,213.57c.08-.38.16-.77.24-1.15C42.71,212.8,42.63,213.18,42.55,213.57Z"/><path class="cls-3" d="M47.91,192.27q-.43,1.41-.84,2.82c-.1.32-.19.63-.27.94l.69-2.33c.25-.86.52-1.72.78-2.57-.1.3-.2.61-.29.91A2,2,0,0,0,47.91,192.27Zm-1.9,6.6c.21-.79.43-1.57.65-2.35-.15.51-.29,1-.44,1.54Zm-.69,2.6c.22-.85.44-1.7.67-2.54L45.42,201C45.39,201.19,45.35,201.33,45.32,201.47ZM44,206.72q.6-2.58,1.26-5.14c-.3,1.15-.59,2.3-.87,3.46Z"/></svg>