<svg id="Layer_1" data-name="Layer 1" xmlns="http://www.w3.org/2000/svg" viewBox="0 0 512 512"><title>stethoscope</title><rect width="512" height="512" fill="#d3de7e"/><path d="M156,263.89a21.3,21.3,0,0,0,10.86,16.78,68.66,68.66,0,0,0,16.39,6.64A174.73,174.73,0,0,1,164,329.87c-9.81,15.69-9.93,34.63-.33,51.95,14.18,25.51,45.43,42.67,77.78,42.67,22.26,0,42-10.23,55.66-28.83,19.53-26.58,23.86-65.82,11.58-104.94-11.4-36.24,3.83-55.59,13.9-63.9a46.2,46.2,0,1,0-12.8-22.59c-19,13.91-41,45.22-25.62,94.18,9.68,30.89,6.72,62.33-7.78,82-6.13,8.38-17.2,18.36-34.93,18.36-22.94,0-45.69-12.11-55.29-29.45-3.56-6.4-6.49-16.06-.39-25.84a198.92,198.92,0,0,0,23.72-54.7,68.18,68.18,0,0,0,22.13-7.39,21.41,21.41,0,0,0,11.09-16.18c30.18-27.27,44.11-76.44,44.93-79.31a12.81,12.81,0,0,0-6.34-14.75c4.18-36.9-9.49-55.51-17.74-63.07a9.28,9.28,0,0,0-3.89-9.39l-15.16-9.9a7.59,7.59,0,0,0-11.09,2.93l-7.21,14a6.78,6.78,0,0,0,4.28,10l17.13,5.05a11.16,11.16,0,0,0,12-4.58c6.81,7.18,16.65,23.18,13.24,53.71a12.83,12.83,0,0,0-10,9.15c-4.1,14.78-16,45.28-33.64,63.58a21.24,21.24,0,0,0-17.79,1,24,24,0,0,1-11.13,3.08h-.77a24.76,24.76,0,0,1-11.72-3.38,21.27,21.27,0,0,0-17.56-1.44c-17.26-18.36-28.89-48.23-32.93-62.8a12.9,12.9,0,0,0-10-9.15c-3.38-30.53,6.43-46.53,13.28-53.71a11.21,11.21,0,0,0,12,4.61l17.13-5.05A6.83,6.83,0,0,0,174,105.72l-7.2-14a7.57,7.57,0,0,0-11.1-2.9l-15.16,9.9a9.29,9.29,0,0,0-3.92,9.36c-8.22,7.59-21.89,26.17-17.73,63.1a12.84,12.84,0,0,0-6.34,14.71c.8,2.81,14.32,50.42,43.48,78Zm198.25-87.83a17.85,17.85,0,1,1-17.85,17.85,17.84,17.84,0,0,1,17.85-17.85Zm0,0" fill="#fff"/></svg>