<svg id="Layer_1" data-name="Layer 1" xmlns="http://www.w3.org/2000/svg" viewBox="0 0 512 512"><title>forrst-flat</title><path d="M503.35,0H258.7C117.71,0,0,111.21,0,252.2V496.86C0,502.74,8.15,512,14,512H258.7c141,0,253.3-118.8,253.3-259.8V7.53C512,1.65,509.23,0,503.35,0Z" fill="#007338"/><path d="M121.62,413.42H239.28V348.74l-31.52-21.86,5.2-7.5,26.31,18.24V285.79h30v34.05L296.66,306l4.12,8.17-31.55,15.89v25.11l50.35-25.38,4.1,8.15-54.46,27.46v48H386.45a7.31,7.31,0,0,0,6.71-10.24L261,98.7a7.33,7.33,0,0,0-13.43,0L114.91,403.17a7.31,7.31,0,0,0,6.71,10.25Z" fill="#fff"/></svg>