<svg id="Layer_1" data-name="Layer 1" xmlns="http://www.w3.org/2000/svg" viewBox="0 0 512 512"><defs><style>.cls-1{fill:#141f38;}</style></defs><title>microphone-glyph</title><path class="cls-1" d="M256,0A124.86,124.86,0,0,0,131.28,124.72V249.44H380.72V124.72A124.86,124.86,0,0,0,256,0ZM216.62,216.62a13.13,13.13,0,1,1,13.13-13.13A13.13,13.13,0,0,1,216.62,216.62Zm0-39.38a13.13,13.13,0,1,1,13.13-13.13A13.13,13.13,0,0,1,216.62,177.23Zm0-39.38a13.13,13.13,0,1,1,13.13-13.13A13.13,13.13,0,0,1,216.62,137.85Zm0-39.38a13.13,13.13,0,1,1,13.13-13.13A13.13,13.13,0,0,1,216.62,98.46ZM256,216.62a13.13,13.13,0,1,1,13.13-13.13A13.13,13.13,0,0,1,256,216.62Zm0-39.38a13.13,13.13,0,1,1,13.13-13.13A13.13,13.13,0,0,1,256,177.23Zm0-39.38a13.13,13.13,0,1,1,13.13-13.13A13.13,13.13,0,0,1,256,137.85Zm0-39.38a13.13,13.13,0,1,1,13.13-13.13A13.13,13.13,0,0,1,256,98.46Zm39.38,118.15a13.13,13.13,0,1,1,13.13-13.13A13.13,13.13,0,0,1,295.38,216.62Zm0-39.38a13.13,13.13,0,1,1,13.13-13.13A13.13,13.13,0,0,1,295.38,177.23Zm0-39.38a13.13,13.13,0,1,1,13.13-13.13A13.13,13.13,0,0,1,295.38,137.85Zm0-39.38a13.13,13.13,0,1,1,13.13-13.13A13.13,13.13,0,0,1,295.38,98.46ZM236.31,334.77A19.69,19.69,0,1,1,256,354.46,19.71,19.71,0,0,1,236.31,334.77Zm-105-39c0,66.47,52.48,120.76,118.15,124v79.08H164.1a6.56,6.56,0,1,0,0,13.13H347.9a6.56,6.56,0,1,0,0-13.13H262.56V419.79c65.68-3.24,118.15-57.53,118.15-124V262.56H131.28ZM256,301.95a32.82,32.82,0,1,1-32.82,32.82A32.86,32.86,0,0,1,256,301.95Z"/></svg>