<svg xmlns="http://www.w3.org/2000/svg" xmlns:xlink="http://www.w3.org/1999/xlink" viewBox="0 0 512 512"><defs><linearGradient id="linear-gradient" y1="222.62" x2="445.24" y2="222.62" gradientUnits="userSpaceOnUse"><stop offset="0" stop-color="#fff"/><stop offset="1" stop-color="#d0d3d4"/></linearGradient><linearGradient id="linear-gradient-2" x1="11.13" y1="222.62" x2="434.11" y2="222.62" gradientUnits="userSpaceOnUse"><stop offset="0" stop-color="#d0d3d4"/><stop offset="1" stop-color="#fff"/></linearGradient></defs><title>caduceus-other</title><g style="isolation:isolate"><g id="Layer_1" data-name="Layer 1"><g style="mix-blend-mode:multiply"><path d="M289.38,512C166.63,512,66.76,412.13,66.76,289.38S166.63,66.76,289.38,66.76,512,166.63,512,289.38,412.13,512,289.38,512Z" fill="#fff" opacity="0"/><path d="M286.2,508.69c-122.68,0-222.49-99.81-222.49-222.49S163.52,63.71,286.2,63.71,508.69,163.52,508.69,286.2,408.88,508.69,286.2,508.69Z" fill="#f9f9f9" opacity="0.05"/><path d="M283,505.38C160.41,505.38,60.67,405.63,60.67,283S160.41,60.67,283,60.67,505.38,160.41,505.38,283,405.63,505.38,283,505.38Z" fill="#f3f3f3" opacity="0.1"/><path d="M279.84,502.07c-122.53,0-222.22-99.69-222.22-222.22S157.31,57.62,279.84,57.62s222.22,99.69,222.22,222.22S402.37,502.07,279.84,502.07Z" fill="#ededee" opacity="0.14"/><path d="M276.66,498.75c-122.46,0-222.09-99.63-222.09-222.09S154.2,54.57,276.66,54.57,498.75,154.2,498.75,276.66,399.12,498.75,276.66,498.75Z" fill="#e7e7e8" opacity="0.19"/><path d="M273.48,495.44c-122.39,0-222-99.57-222-222s99.57-222,222-222,222,99.57,222,222S395.87,495.44,273.48,495.44Z" fill="#e1e1e2" opacity="0.24"/><path d="M270.31,492.13C148,492.13,48.48,392.62,48.48,270.31S148,48.48,270.31,48.48,492.13,148,492.13,270.31,392.62,492.13,270.31,492.13Z" fill="#dbdbdc" opacity="0.29"/><path d="M267.13,488.82c-122.24,0-221.69-99.45-221.69-221.69S144.88,45.43,267.13,45.43s221.69,99.45,221.69,221.69S389.37,488.82,267.13,488.82Z" fill="#d5d5d6" opacity="0.33"/><path d="M263.95,485.51c-122.17,0-221.56-99.39-221.56-221.56S141.78,42.39,263.95,42.39s221.56,99.39,221.56,221.56S386.11,485.51,263.95,485.51Z" fill="#cfcfd1" opacity="0.38"/><path d="M260.77,482.2c-122.1,0-221.43-99.33-221.43-221.43S138.67,39.34,260.77,39.34,482.2,138.67,482.2,260.77,382.86,482.2,260.77,482.2Z" fill="#c9c9cb" opacity="0.43"/><path d="M257.59,478.89c-122,0-221.3-99.27-221.3-221.3s99.27-221.3,221.3-221.3,221.3,99.27,221.3,221.3S379.61,478.89,257.59,478.89Z" fill="#c3c3c5" opacity="0.48"/><path d="M254.41,475.57c-122,0-221.16-99.21-221.16-221.16S132.46,33.25,254.41,33.25s221.16,99.21,221.16,221.16S376.36,475.57,254.41,475.57Z" fill="#bcbebf" opacity="0.52"/><path d="M251.23,472.26c-121.88,0-221-99.15-221-221s99.15-221,221-221,221,99.15,221,221S373.11,472.26,251.23,472.26Z" fill="#b6b8b9" opacity="0.57"/><path d="M248.05,469c-121.8,0-220.9-99.09-220.9-220.9s99.09-220.9,220.9-220.9S469,126.25,469,248.05,369.85,469,248.05,469Z" fill="#b0b2b3" opacity="0.62"/><path d="M244.87,465.64c-121.73,0-220.77-99-220.77-220.77s99-220.77,220.77-220.77,220.77,99,220.77,220.77S366.6,465.64,244.87,465.64Z" fill="#aaacae" opacity="0.67"/><path d="M241.69,462.33c-121.66,0-220.63-99-220.63-220.63S120,21.06,241.69,21.06s220.63,99,220.63,220.63S363.35,462.33,241.69,462.33Z" fill="#a4a6a8" opacity="0.71"/><path d="M238.52,459C116.93,459,18,360.1,18,238.52S116.93,18,238.52,18,459,116.93,459,238.52,360.1,459,238.52,459Z" fill="#9ea0a2" opacity="0.76"/><path d="M235.34,455.71C113.83,455.71,15,356.85,15,235.34S113.83,15,235.34,15s220.37,98.86,220.37,220.37S356.85,455.71,235.34,455.71Z" fill="#989a9c" opacity="0.81"/><path d="M232.16,452.39c-121.44,0-220.24-98.8-220.24-220.24S110.72,11.92,232.16,11.92s220.24,98.8,220.24,220.24S353.59,452.39,232.16,452.39Z" fill="#929496" opacity="0.86"/><path d="M229,449.08c-121.37,0-220.1-98.74-220.1-220.1S107.61,8.88,229,8.88s220.1,98.74,220.1,220.1S350.34,449.08,229,449.08Z" fill="#8c8e91" opacity="0.9"/><path d="M225.8,445.77c-121.29,0-220-98.68-220-220s98.68-220,220-220,220,98.68,220,220S347.09,445.77,225.8,445.77Z" fill="#86888b" opacity="0.95"/><path d="M222.62,442.46C101.4,442.46,2.78,343.84,2.78,222.62S101.4,2.78,222.62,2.78,442.46,101.4,442.46,222.62,343.84,442.46,222.62,442.46Z" fill="#808285"/></g><path d="M222.62,445.24C99.87,445.24,0,345.37,0,222.62S99.87,0,222.62,0,445.24,99.87,445.24,222.62,345.37,445.24,222.62,445.24Z" fill="url(#linear-gradient)"/><path d="M222.62,434.11C106,434.11,11.13,339.24,11.13,222.62S106,11.13,222.62,11.13,434.11,106,434.11,222.62,339.24,434.11,222.62,434.11Z" fill="url(#linear-gradient-2)"/><path d="M269.12,135.43c-6.74-5.53-11.44-4.22-18.2,7.84A16.31,16.31,0,0,1,235,152l0-1.59a15.35,15.35,0,1,0-13.41,0l0,1.62a16.32,16.32,0,0,1-15.93-8.69c-6.75-12.05-11.45-13.37-18.17-7.84S154,172.9,121.44,170c0,0,6.45,14.66,24.06,11.41,0,0,9.41,9.76,24.67,2.93,0,0,7.94,7.16,20.54.64,0,0,9.38,7.16,19.39,1,0,0,5.64,4.09,11.92,3l.4,36.87c-.71-.15-1.28-.3-2-.44,0,0-10.9-2.35-22.44-5.59-11.11-2.9-23.3-7.62-25.1-10.07a2.73,2.73,0,0,1,.73-.42,18.93,18.93,0,0,1,4.67-1.48,105.22,105.22,0,0,1,15.17-1.48c11-.4,13,.08,13.23.12,0-.34,6.38.75,8.14-5.75-.07,0,.13-.31,0-.45-.37-4.48-3.8-4.69-6.61-5.22-4.56-.6-2.18-.36-8.34-.29-10.1.76-41.24-1.77-45.16,14.62a7.33,7.33,0,0,1-.08,1.15c1.31,14.26,30.85,20.47,52.26,24.73-7.27,5-11.15,11.45-12.7,19.81C193.4,264,200.49,272.5,217,282c-12.5,8.84-20.71,17.16-20,27.19,1.17,8.19,8.39,19.12,22.59,26,0,0,.05,0,.09,0h0S209.69,320,209,311.74c-.65-4.81,2.09-12,14.18-20.6l.34,30.31h.05a4.58,4.58,0,1,0,9.16,0h0l.4-29.51c11.13,8.25,13.65,15.12,13,19.8-.65,8.29-10.56,23.46-10.56,23.46h0a.13.13,0,0,0,.09,0c14.2-6.9,21.44-17.83,22.57-26,.67-10-7.53-18.36-20-27.18,16.42-9.49,23.52-18,22.8-26.92-1.53-8.37-5.43-14.83-12.7-19.81,21.42-4.26,50.95-10.46,52.26-24.73a7.73,7.73,0,0,1-.09-1.15c-3.91-16.39-35.07-13.86-45.18-14.62-6.15-.07-3.76-.31-8.32.29-2.83.51-6.27.73-6.63,5.2-.11.14.09.41,0,.47,1.76,6.5,8.13,5.39,8.14,5.75.18,0,2.17-.51,13.24-.11A101.75,101.75,0,0,1,277,207.85a19.39,19.39,0,0,1,4.68,1.47,2.79,2.79,0,0,1,.74.44c-1.8,2.44-14,7.16-25.09,10.09-11.54,3.2-22.46,5.54-22.49,5.55-.28.05-.5.11-.79.15l.47-36.6c6.31,1.11,12-3,12-3,10,6.2,19.37-1,19.37-1,12.64,6.51,20.54-.64,20.54-.64,15.25,6.83,24.67-2.93,24.67-2.93,17.63,3.24,24.11-11.41,24.11-11.41C302.61,172.9,275.89,141,269.12,135.43Zm-60.8,122.49c.22-3.22-.88-10.9,14.32-16.48l.34,30.47c-2.93-1.87-6-3.77-9.06-5.74C209.85,263.64,207.94,260.23,208.33,257.92Zm33,8.25c-2.68,1.72-5.29,3.34-7.85,5l.39-29.21c13.88,5.54,12.84,12.86,13.07,16C247.29,260.23,245.38,263.64,241.3,266.18Z" fill="#fff"/><path d="M263.42,129.73c-6.74-5.53-11.44-4.22-18.2,7.84a16.31,16.31,0,0,1-15.94,8.69l0-1.59a15.35,15.35,0,1,0-13.41,0l0,1.62A16.32,16.32,0,0,1,200,137.56c-6.75-12.05-11.45-13.37-18.17-7.84s-33.51,37.47-66.09,34.55c0,0,6.45,14.66,24.06,11.41,0,0,9.41,9.76,24.67,2.93,0,0,7.94,7.16,20.54.64,0,0,9.38,7.16,19.39,1,0,0,5.64,4.09,11.92,3l.4,36.87c-.71-.15-1.28-.3-2-.44,0,0-10.9-2.35-22.44-5.59-11.11-2.9-23.3-7.62-25.1-10.07a2.73,2.73,0,0,1,.73-.42,18.93,18.93,0,0,1,4.67-1.48,105.22,105.22,0,0,1,15.17-1.48c11-.4,13,.08,13.23.12,0-.34,6.38.75,8.14-5.75-.07,0,.13-.31,0-.45-.37-4.48-3.8-4.69-6.61-5.22-4.56-.6-2.18-.36-8.34-.29-10.1.76-41.24-1.77-45.16,14.62a7.33,7.33,0,0,1-.08,1.15c1.31,14.26,30.85,20.47,52.26,24.73-7.27,5-11.15,11.45-12.7,19.81-.74,8.92,6.34,17.41,22.81,26.9-12.5,8.84-20.71,17.16-20,27.19,1.17,8.19,8.39,19.12,22.59,26,0,0,.05,0,.09,0h0S204,314.33,203.32,306c-.65-4.81,2.09-12,14.18-20.6l.34,30.31h.05a4.58,4.58,0,1,0,9.16,0h0l.4-29.51c11.13,8.25,13.65,15.12,13,19.8-.65,8.29-10.56,23.46-10.56,23.46h0a.13.13,0,0,0,.09,0c14.2-6.9,21.44-17.83,22.57-26,.67-10-7.53-18.36-20-27.18,16.42-9.49,23.52-18,22.8-26.92-1.53-8.37-5.43-14.83-12.7-19.81,21.42-4.26,50.95-10.46,52.26-24.73a7.73,7.73,0,0,1-.09-1.15c-3.91-16.39-35.07-13.86-45.18-14.62-6.15-.07-3.76-.31-8.32.29-2.83.51-6.27.73-6.63,5.2-.11.14.09.41,0,.47,1.76,6.5,8.13,5.39,8.14,5.75.18,0,2.17-.51,13.24-.11a101.75,101.75,0,0,1,15.12,1.48,19.39,19.39,0,0,1,4.68,1.47,2.79,2.79,0,0,1,.74.44c-1.8,2.44-14,7.16-25.09,10.09-11.54,3.2-22.46,5.54-22.49,5.55-.28.05-.5.11-.79.15l.47-36.6c6.31,1.11,12-3,12-3,10,6.2,19.37-1,19.37-1,12.64,6.51,20.54-.64,20.54-.64,15.25,6.83,24.67-2.93,24.67-2.93,17.63,3.24,24.11-11.41,24.11-11.41C296.91,167.2,270.19,135.27,263.42,129.73Zm-60.8,122.49c.22-3.22-.88-10.9,14.32-16.48l.34,30.47c-2.93-1.87-6-3.77-9.06-5.74C204.15,257.94,202.24,254.53,202.63,252.22Zm33,8.25c-2.68,1.72-5.29,3.34-7.85,5l.39-29.21c13.88,5.54,12.84,12.86,13.07,16C241.59,254.53,239.68,257.94,235.6,260.47Z" fill="#88868a"/></g></g></svg>