<svg id="Layer_1" data-name="Layer 1" xmlns="http://www.w3.org/2000/svg" viewBox="0 0 512 512"><defs><style>.cls-1{fill:#ffc84d;}.cls-2{fill:#ea8849;}.cls-3{fill:#ffb232;}.cls-4{fill:#f4536a;}.cls-5{fill:#ee374b;}.cls-6{fill:#6b287c;}</style></defs><title>gingerbread-house-filled</title><rect class="cls-1" x="96" y="288" width="320" height="213.33"/><path class="cls-2" d="M189.33,362.67h0A45.33,45.33,0,0,0,144,408v93.33h90.67V408A45.33,45.33,0,0,0,189.33,362.67Z"/><rect class="cls-3" x="362.67" y="288" width="53.33" height="213.33"/><path class="cls-4" d="M375.17,181.33H136.83a40.64,40.64,0,0,0-36.16,22.1L68.33,266.5c-7.5,18.76,4.29,40.62,24.4,42.67a32.38,32.38,0,0,0,3.27.17,32,32,0,0,0,28.11-16.7,4.49,4.49,0,0,1,7.78,0,32,32,0,0,0,56.22,0,4.49,4.49,0,0,1,7.78,0,32,32,0,0,0,56.22,0,4.49,4.49,0,0,1,7.78,0,32,32,0,0,0,56.22,0,4.49,4.49,0,0,1,7.78,0,32,32,0,0,0,56.22,0,4.49,4.49,0,0,1,7.78,0A32,32,0,0,0,416,309.33a32.38,32.38,0,0,0,3.27-.17c20.1-2,31.9-23.91,24.4-42.67l-32.34-63.07A40.64,40.64,0,0,0,375.17,181.33Z"/><path class="cls-5" d="M443.67,266.5l-32.34-63.07a40.64,40.64,0,0,0-36.16-22.1H343.92a48.89,48.89,0,0,1,14.29,16.8l39,76.15a38.66,38.66,0,0,1-.11,28.83A31.78,31.78,0,0,0,416,309.33a32.34,32.34,0,0,0,3.27-.17C439.37,307.13,451.17,285.26,443.67,266.5Z"/><rect class="cls-2" x="282.67" y="362.67" width="85.33" height="85.33"/><rect class="cls-1" x="314.67" y="122.67" width="42.67" height="58.67"/><rect class="cls-1" x="304" y="96" width="64" height="37.33"/><path class="cls-6" d="M416,400a10.67,10.67,0,0,0-10.67,10.67v16.43a10.67,10.67,0,0,0,21.33,0V410.67A10.67,10.67,0,0,0,416,400Z"/><path class="cls-6" d="M21.33,490.67H10.67a10.67,10.67,0,0,0,0,21.33H21.33a10.67,10.67,0,0,0,0-21.33Z"/><path class="cls-6" d="M501.33,490.67H490.67a10.67,10.67,0,0,0,0,21.33h10.67a10.67,10.67,0,0,0,0-21.33Z"/><path class="cls-6" d="M453,490.67H426.67V464.35a10.9,10.9,0,0,0-10.47-11A10.67,10.67,0,0,0,405.33,464v26.67h-160V408.85c0-30.73-24.4-56.37-55.13-56.84a56.06,56.06,0,0,0-56.87,56v21.19a10.9,10.9,0,0,0,10.47,11,10.67,10.67,0,0,0,10.87-10.66V408.69c0-19.4,15.87-35.68,35.26-35.35A34.71,34.71,0,0,1,224,408v82.67H154.67V466.81a10.9,10.9,0,0,0-10.47-11,10.67,10.67,0,0,0-10.87,10.66v24.21H106.67v-172A42.75,42.75,0,0,0,128,305.55a42.65,42.65,0,0,0,64,0,42.65,42.65,0,0,0,64,0,42.65,42.65,0,0,0,64,0,42.65,42.65,0,0,0,64,0,42.74,42.74,0,0,0,21.33,13.08v54.77a10.9,10.9,0,0,0,10.47,11,10.67,10.67,0,0,0,10.87-10.66V318.61a39.84,39.84,0,0,0,23.7-18,43,43,0,0,0,3.22-38c-.12-.31-.27-.62-.42-.93L420.8,198.55a51.06,51.06,0,0,0-45.66-27.89H368V144h.67a10,10,0,0,0,10-10V95.33a10,10,0,0,0-10-10H303.33a10,10,0,0,0-10,10V134a10,10,0,0,0,10,10H304v26.67H267a10.9,10.9,0,0,0-11,10.47A10.67,10.67,0,0,0,266.67,192H375.15a29.82,29.82,0,0,1,26.67,16.28l3.49,6.81c-.31,9-6.5,18.41-17,19.47a21.7,21.7,0,0,1-21-10.85,15.38,15.38,0,0,0-26.72,0,21.48,21.48,0,0,1-37.47,0,15.27,15.27,0,0,0-13.35-7.74h0a15.28,15.28,0,0,0-13.36,7.76,21.44,21.44,0,0,1-37.42,0,15.38,15.38,0,0,0-26.71,0,21.44,21.44,0,0,1-37.42,0,15.28,15.28,0,0,0-13.35-7.75h0a15.28,15.28,0,0,0-13.35,7.74A21.44,21.44,0,0,1,108,213.33c0-.22,0-.44,0-.66l2.26-4.4A29.82,29.82,0,0,1,136.85,192h39.22a10.9,10.9,0,0,0,11-10.47,10.67,10.67,0,0,0-10.66-10.87H136.85A51.05,51.05,0,0,0,91.2,198.54L58.83,261.64c-.16.3-.3.61-.42.93a43,43,0,0,0,3.22,38,39.83,39.83,0,0,0,23.7,18V490.67H59a10.9,10.9,0,0,0-11,10.47A10.67,10.67,0,0,0,58.67,512H453.33A10.67,10.67,0,0,0,464,501.13,10.9,10.9,0,0,0,453,490.67Zm-138.31-384h42.67v16H314.67ZM325.33,144h21.33v26.67H325.33ZM79.86,289.53a21.59,21.59,0,0,1-1.8-18.66l16.7-32.54a42.78,42.78,0,0,0,66.72,3.18,42.76,42.76,0,0,0,64.14,0,42.76,42.76,0,0,0,64.14,0,42.8,42.8,0,0,0,64.17,0A42.84,42.84,0,0,0,386,256c1.46,0,2.91-.07,4.38-.21A39.75,39.75,0,0,0,418.11,240l15.82,30.84a21.59,21.59,0,0,1-1.8,18.66,18.4,18.4,0,0,1-14,9,21,21,0,0,1-2.16.1,21.43,21.43,0,0,1-18.77-11.19,15.16,15.16,0,0,0-26.47,0,21.34,21.34,0,0,1-37.53,0,15.16,15.16,0,0,0-26.47,0,21.34,21.34,0,0,1-37.53,0,15.16,15.16,0,0,0-26.47,0,21.34,21.34,0,0,1-37.53,0,15.16,15.16,0,0,0-26.47,0,21.34,21.34,0,0,1-37.53,0,15.16,15.16,0,0,0-26.47,0,21.58,21.58,0,0,1-20.93,11A18.38,18.38,0,0,1,79.86,289.53Z"/><path class="cls-6" d="M288.33,352A16.33,16.33,0,0,0,272,368.33v74a16.33,16.33,0,0,0,16.33,16.33h74a16.33,16.33,0,0,0,16.33-16.33v-74A16.33,16.33,0,0,0,362.33,352Zm69,42.67H336V373.33h21.33Zm-42.67-21.33v21.33H293.33V373.33ZM293.33,416h21.33v21.33H293.33ZM336,437.33V416h21.33v21.33Z"/><path class="cls-6" d="M213.33,192h16.43a10.67,10.67,0,0,0,0-21.33H213.33a10.67,10.67,0,0,0,0,21.33Z"/><path class="cls-6" d="M378.67,21.33h42.67a10.67,10.67,0,1,0,0-21.33H378.67a10.67,10.67,0,1,0,0,21.33Z"/><path class="cls-6" d="M458.67,21.33h10.67a10.67,10.67,0,1,0,0-21.33H458.67a10.67,10.67,0,1,0,0,21.33Z"/><path class="cls-6" d="M405.33,42.67A10.67,10.67,0,0,0,416,53.33h85.33a10.67,10.67,0,1,0,0-21.33H416A10.67,10.67,0,0,0,405.33,42.67Z"/><path class="cls-6" d="M336,69.33a10.67,10.67,0,0,0,10.67-10.67A5.34,5.34,0,0,1,352,53.33h26.67a10.67,10.67,0,1,0,0-21.33H352a26.7,26.7,0,0,0-26.67,26.67A10.67,10.67,0,0,0,336,69.33Z"/></svg>