<svg id="Layer_1" data-name="Layer 1" xmlns="http://www.w3.org/2000/svg" viewBox="0 0 512 512"><defs><style>.cls-1{fill:#5ecaef;}.cls-2{fill:#141f38;}.cls-3{fill:#3eb38a;}</style></defs><title>live-tv-filled</title><path class="cls-1" d="M256,59.08C147.24,59.08,59.08,147.24,59.08,256H452.92C452.92,147.24,364.76,59.08,256,59.08Z"/><path class="cls-2" d="M452.92,262.56H59.08A6.56,6.56,0,0,1,52.51,256C52.51,143.79,143.79,52.51,256,52.51S459.49,143.79,459.49,256A6.56,6.56,0,0,1,452.92,262.56ZM65.75,249.44h380.5C442.78,147.5,358.77,65.64,256,65.64S69.22,147.5,65.75,249.44Z"/><path class="cls-2" d="M151,262.56a6.56,6.56,0,0,1-6.56-6.56A242.5,242.5,0,0,1,252.35,54l4.24,5.06,3.56,5.51a230.63,230.63,0,0,0-83.09,98.56A228,228,0,0,0,157.54,256,6.56,6.56,0,0,1,151,262.56Z"/><path class="cls-2" d="M361,262.56a6.56,6.56,0,0,1-6.56-6.56,228,228,0,0,0-19.52-92.85,230.14,230.14,0,0,0-82.59-98.22,6.87,6.87,0,0,1-2.13-9.26,6.26,6.26,0,0,1,8.75-2.1l.68.45a243.15,243.15,0,0,1,87.29,103.82A241,241,0,0,1,367.59,256,6.56,6.56,0,0,1,361,262.56Z"/><path class="cls-2" d="M256,262.56a6.56,6.56,0,0,1-6.56-6.56V59.47A6.73,6.73,0,0,1,256,52.71a6.39,6.39,0,0,1,6.56,6.37V256A6.56,6.56,0,0,1,256,262.56Z"/><rect class="cls-3" x="6.56" y="256" width="498.87" height="196.92" rx="32.82" ry="32.82"/><path class="cls-2" d="M472.62,459.49H39.38A39.43,39.43,0,0,1,0,420.1V288.82a39.43,39.43,0,0,1,39.38-39.38H472.62A39.43,39.43,0,0,1,512,288.82V420.1A39.43,39.43,0,0,1,472.62,459.49ZM39.38,262.56a26.28,26.28,0,0,0-26.26,26.26V420.1a26.28,26.28,0,0,0,26.26,26.26H472.62a26.28,26.28,0,0,0,26.26-26.26V288.82a26.28,26.28,0,0,0-26.26-26.26Z"/><path class="cls-2" d="M256,183.79a229.65,229.65,0,0,1-149.74-55.48,6.56,6.56,0,0,1,8.56-9.95A216.52,216.52,0,0,0,256,170.67a216.52,216.52,0,0,0,141.18-52.3,6.56,6.56,0,0,1,8.56,9.95A229.65,229.65,0,0,1,256,183.79Z"/><path d="M72.21,321.64H83.7v54.75h34.37v10.43H72.21Z"/><path d="M130.7,321.64h11.49v65.18H130.7Z"/><path d="M154.06,321.64h12.71l19.7,50.09,19.61-50.09h12.43l-27.18,65.64H181.24Z"/><path d="M229.75,321.64h48.47v10.24h-37v16.94H274v10.24H241.24v17.51H278.7v10.24H229.75Z"/><path d="M336.46,332.26H315.72V321.64h53.05v10.61H348v54.56H336.46Z"/><path d="M375.34,321.64h12.71l19.7,50.09,19.61-50.09h12.43l-27.18,65.64H402.52Z"/></svg>