<svg id="Layer_1" data-name="Layer 1" xmlns="http://www.w3.org/2000/svg" viewBox="0 0 512 512"><title>bodybuilding-halter-flat</title><rect y="9.14" width="512" height="493.73" rx="54.99" ry="54.99" transform="translate(512) rotate(90)" fill="#e6d6a6"/><rect x="20.23" y="11.1" width="471.53" height="489.81" rx="43.89" ry="43.89" fill="#b79148"/><path d="M386.77,237.22h-5.28v-55a6.83,6.83,0,0,0-6.85-6.78H356.34a6.48,6.48,0,0,0-2.47.48V141a10.64,10.64,0,0,0-10.68-10.58h-28.5A10.65,10.65,0,0,0,304,141v96.24H208V141a10.63,10.63,0,0,0-10.7-10.58h-28.5A10.63,10.63,0,0,0,158.13,141v34.89a6.48,6.48,0,0,0-2.47-.48H137.36a6.81,6.81,0,0,0-6.85,6.78v55h-5.3a10.64,10.64,0,0,0-10.68,10.58v9a10.64,10.64,0,0,0,10.68,10.58h5.3v62.41a6.82,6.82,0,0,0,6.85,6.79h18.29a7,7,0,0,0,2.47-.47V371a10.63,10.63,0,0,0,10.68,10.57h28.5A10.63,10.63,0,0,0,208,371V267.42h96V371a10.65,10.65,0,0,0,10.72,10.57h28.5A10.64,10.64,0,0,0,353.87,371V336.15a7,7,0,0,0,2.47.47h18.29a6.83,6.83,0,0,0,6.85-6.79V267.42h5.28a10.65,10.65,0,0,0,10.7-10.58v-9A10.65,10.65,0,0,0,386.77,237.22Z" fill="#e6d6a6"/></svg>