<svg id="Layer_1" data-name="Layer 1" xmlns="http://www.w3.org/2000/svg" viewBox="0 0 512 512"><defs><style>.cls-1{fill:#cad8dd;}.cls-2{fill:#e6edef;}.cls-3{fill:#dd2c6c;}.cls-4{fill:#44bc4f;}.cls-5{fill:#38bfd6;}.cls-6{fill:#c1cfd3;}</style></defs><title>agar-plate-flat</title><circle class="cls-1" cx="256" cy="256" r="256"/><circle class="cls-2" cx="256" cy="256" r="204.8"/><path class="cls-3" d="M231.85,227.66l-47.54,19a38.4,38.4,0,0,1-49.91-21.39h0a38.4,38.4,0,0,1,21.39-49.91l47.54-19a38.4,38.4,0,0,1,49.91,21.39h0A38.4,38.4,0,0,1,231.85,227.66Z"/><path class="cls-4" d="M229,370.53l-36.41-36.05a38.39,38.39,0,0,1-.27-54.3h0a38.39,38.39,0,0,1,54.29-.27L283,316a38.39,38.39,0,0,1,.27,54.3h0A38.39,38.39,0,0,1,229,370.53Z"/><path class="cls-5" d="M294.23,245.12l14.52-49.18a38.4,38.4,0,0,1,47.73-26h0a38.4,38.4,0,0,1,25.93,47.69L367.9,266.86a38.4,38.4,0,0,1-47.73,26h0A38.4,38.4,0,0,1,294.23,245.12Z"/><circle class="cls-6" cx="268.8" cy="128" r="12.8"/><circle class="cls-6" cx="358.4" cy="345.6" r="12.8"/><circle class="cls-6" cx="128" cy="294.4" r="12.8"/></svg>